# Blender v2.83.4 OBJ File: 'ending_room_backdrop.blend'
# www.blender.org
mtllib ending_room_backdrop.mtl
o Ending_Room_Backdrop
v 9.000000 -0.500000 -9.000000
v 0.000000 -0.500000 0.000000
v 0.000000 -0.500000 -9.000000
v 3.000000 -0.500000 0.000000
v 6.000000 -0.500000 0.000000
v 9.000000 -0.500000 0.000000
v 9.000000 6.000000 0.000000
v 0.000000 6.000000 -9.000000
v 0.000000 6.000000 0.000000
v 9.000000 6.000000 -9.000000
v 6.000000 3.000000 0.000000
v 3.000000 3.000000 0.000000
vt 0.790268 0.580630
vt 0.500000 0.580630
vt 0.500000 0.290362
vt 0.596756 0.290362
vt 0.693512 0.290362
vt 0.790268 0.290362
vt 0.000093 0.290362
vt 0.290362 0.290362
vt 0.290362 0.580630
vt 0.000093 0.580630
vt 0.999907 0.290362
vt 0.999907 0.580630
vt 0.790268 0.193606
vt 0.903150 0.193606
vt 0.903150 0.096849
vt 0.790268 0.096849
vt 0.790268 0.000093
vt 0.999907 0.000093
vt 0.999907 0.870899
vt 0.790268 0.870899
vn -0.5773 0.5773 0.5773
vn 0.5773 0.5773 0.5773
vn 0.5773 0.5773 -0.5773
vn 0.0000 0.8944 -0.4472
vn -0.5773 0.5773 -0.5773
vn -0.5773 -0.5773 -0.5773
vn 0.5773 -0.5773 -0.5773
vn 0.5773 -0.5773 0.5773
vn -0.5773 -0.5773 0.5773
vn 0.0000 0.0000 -1.0000
usemtl None
s 1
f 1/1/1 3/2/2 2/3/3
f 2/3/3 4/4/4 1/1/1
f 4/4/4 5/5/4 1/1/1
f 5/5/4 6/6/5 1/1/1
f 7/7/6 9/8/7 8/9/8
f 8/9/8 10/10/9 7/7/6
f 1/1/1 6/6/5 7/11/6
f 7/11/6 10/12/9 1/1/1
f 7/11/6 6/6/5 5/13/4
f 5/13/4 11/14/10 7/11/6
f 11/14/10 12/15/10 7/11/6
f 12/15/10 4/16/4 2/17/3
f 2/17/3 9/18/7 12/15/10
f 9/18/7 7/11/6 12/15/10
f 8/9/8 9/8/7 2/3/3
f 2/3/3 3/2/2 8/9/8
f 8/19/8 3/20/2 1/1/1
f 1/1/1 10/12/9 8/19/8
