# Blender v2.83.4 OBJ File: 'large_room.blend'
# www.blender.org
mtllib large_room.mtl
o Large_Room
v 3.000000 0.000000 -9.000000
v 0.000000 0.000000 0.000000
v 0.000000 0.000000 -9.000000
v 3.000000 0.000000 0.000000
v 6.000000 0.000000 -9.000000
v 6.000000 0.000000 0.000000
v 9.000000 0.000000 -9.000000
v 9.000000 0.000000 0.000000
v 9.000000 3.000000 0.000000
v 9.000000 3.000000 -9.000000
v 0.000000 3.000000 -9.000000
v 0.000000 3.000000 0.000000
v 6.000000 3.000000 -9.000000
v 3.000000 3.000000 0.000000
v 3.000000 3.000000 -9.000000
v 6.000000 3.000000 0.000000
vt 0.488477 0.368950
vt 0.397067 0.495925
vt 0.162526 0.474766
vt 0.119238 0.372103
vt 0.487426 0.245871
vt 0.118187 0.249023
vt 0.486375 0.122791
vt 0.181805 0.135928
vt 0.108686 0.028730
vt 0.476825 0.000078
vt 0.464277 0.637208
vt 0.101563 0.568025
vt 0.610506 0.244820
vt 0.609455 0.121740
vt 0.078502 0.688929
vt 0.441216 0.758113
vt 0.055441 0.809834
vt 0.418154 0.879017
vt 0.032380 0.930738
vt 0.395093 0.999922
vt 0.000078 0.460111
vt 0.003290 0.143627
vt 0.610506 0.515180
vn 0.0000 1.0000 0.0000
vn -1.0000 0.0000 0.0000
vn 1.0000 0.0000 0.0000
vn 0.0000 0.0000 1.0000
vn 0.0000 -1.0000 0.0000
vn 0.0000 0.0000 -1.0000
usemtl None
s off
f 1/1/1 3/2/1 2/3/1
f 2/3/1 4/4/1 1/1/1
f 4/4/1 5/5/1 1/1/1
f 4/4/1 6/6/1 5/5/1
f 6/6/1 7/7/1 5/5/1
f 6/6/1 8/8/1 7/7/1
f 7/7/2 8/8/2 9/9/2
f 9/9/2 10/10/2 7/7/2
f 11/11/3 12/12/3 2/3/3
f 2/3/3 3/2/3 11/11/3
f 13/13/4 5/5/4 7/7/4
f 7/7/4 10/14/4 13/13/4
f 14/15/5 12/12/5 11/11/5
f 11/11/5 15/16/5 14/15/5
f 15/16/5 16/17/5 14/15/5
f 15/16/5 13/18/5 16/17/5
f 13/18/5 9/19/5 16/17/5
f 13/18/5 10/20/5 9/19/5
f 14/21/6 4/4/6 2/3/6
f 2/3/6 12/12/6 14/21/6
f 9/9/6 8/8/6 6/6/6
f 6/6/6 16/22/6 9/9/6
f 11/11/4 3/2/4 1/1/4
f 1/1/4 15/23/4 11/11/4
