# Blender v2.83.4 OBJ File: 'minecraft_room.blend'
# www.blender.org
mtllib minecraft_room.mtl
o Minecart_Room
v 4.500000 0.000000 -9.000000
v 0.000000 0.000000 0.000000
v 0.000000 0.000000 -9.000000
v 4.500000 0.000000 0.000000
v 7.500000 0.000000 -9.000000
v 7.500000 0.000000 0.000000
v 9.000000 0.000000 -9.000000
v 9.000000 0.000000 0.000000
v 4.500000 3.000000 0.000000
v 0.000000 3.000000 -9.000000
v 0.000000 3.000000 0.000000
v 4.500000 3.000000 -9.000000
v 7.500000 3.000000 0.000000
v 7.500000 3.000000 -9.000000
v 9.000000 3.000000 0.000000
v 9.000000 3.000000 -9.000000
vt 0.125050 0.312475
vt 0.125050 0.125050
vt 0.499900 0.125050
vt 0.499900 0.312475
vt 0.125050 0.437425
vt 0.499900 0.437425
vt 0.125050 0.499900
vt 0.499900 0.499900
vt 0.999900 0.187525
vt 0.999900 0.374950
vt 0.625050 0.374950
vt 0.625050 0.187525
vt 0.999900 0.062575
vt 0.625050 0.062575
vt 0.999900 0.000100
vt 0.625050 0.000100
vt 0.000100 0.437425
vt 0.000100 0.499900
vt 0.499900 0.624850
vt 0.125050 0.624850
vt 0.624850 0.312475
vt 0.624850 0.125050
vt 0.125050 0.000100
vt 0.499900 0.000100
vt 0.624850 0.499900
vt 0.624850 0.437425
vt 0.000100 0.125050
vt 0.000100 0.312475
vn 0.0000 1.0000 0.0000
vn 0.0000 -1.0000 0.0000
vn 0.0000 0.0000 1.0000
vn -1.0000 0.0000 0.0000
vn 0.0000 0.0000 -1.0000
vn 1.0000 0.0000 0.0000
usemtl None
s off
f 1/1/1 3/2/1 2/3/1
f 2/3/1 4/4/1 1/1/1
f 4/4/1 5/5/1 1/1/1
f 4/4/1 6/6/1 5/5/1
f 6/6/1 7/7/1 5/5/1
f 6/6/1 8/8/1 7/7/1
f 9/9/2 11/10/2 10/11/2
f 10/11/2 12/12/2 9/9/2
f 12/12/2 13/13/2 9/9/2
f 12/12/2 14/14/2 13/13/2
f 14/14/2 15/15/2 13/13/2
f 14/14/2 16/16/2 15/15/2
f 14/17/3 5/5/3 7/7/3
f 7/7/3 16/18/3 14/17/3
f 7/7/4 8/8/4 15/19/4
f 15/19/4 16/20/4 7/7/4
f 9/21/5 4/4/5 2/3/5
f 2/3/5 11/22/5 9/21/5
f 10/23/6 11/24/6 2/3/6
f 2/3/6 3/2/6 10/23/6
f 15/25/5 8/8/5 6/6/5
f 6/6/5 13/26/5 15/25/5
f 10/27/3 3/2/3 1/1/3
f 1/1/3 12/28/3 10/27/3
