# Blender v2.83.4 OBJ File: ''
# www.blender.org
mtllib CorridorCorner3x3x3.mtl
v 2.995000 0.000000 -2.995000
v 0.000000 0.000000 0.000000
v 0.000000 0.000000 -2.995000
v 0.999890 0.000000 0.000000
v 1.997445 0.000000 0.000000
v 2.995000 0.000000 0.000000
v 2.995000 0.000000 -2.000000
v 2.995000 0.000000 -1.000000
v 0.000000 2.995000 -2.995000
v 0.000000 2.995000 0.000000
v 2.995000 2.000000 -2.000000
v 2.995000 2.995000 0.000000
v 2.995000 2.000000 -1.000000
v 2.995000 2.995000 -2.995000
v 1.997445 1.995000 0.000000
v 0.999890 1.995000 0.000000
v 2.989226 0.005773 -2.989226
v 0.005773 0.005773 -0.005773
v 0.005773 0.005773 -2.989226
v 0.999890 0.008944 -0.004472
v 1.997445 0.008944 -0.004472
v 2.989226 0.005773 -0.005773
v 2.990528 -0.008944 -2.000000
v 2.990528 -0.008944 -1.000000
v 0.005773 2.989226 -2.989226
v 0.005773 2.989226 -0.005773
v 2.985000 2.000000 -2.000000
v 2.989226 2.989226 -0.005773
v 2.985000 2.000000 -1.000000
v 2.989226 2.989226 -2.989226
v 1.997445 1.995000 -0.010000
v 0.999890 1.995000 -0.010000
vn 0.0000 -1.0000 0.0000
vn 0.0000 0.0000 1.0000
vn -1.0000 0.0000 0.0000
vn 1.0000 0.0000 0.0000
vn 0.0000 1.0000 0.0000
vn 0.0000 0.0000 -1.0000
vn -0.0032 1.0000 -0.0032
vn 0.0000 1.0000 -0.0011
vn 0.0032 1.0000 0.0000
vn 0.9961 0.0881 0.0000
vn -1.0000 -0.0028 0.0013
vn -1.0000 0.0000 -0.0013
vn -1.0000 -0.0028 0.0070
vn -1.0000 0.0043 0.0000
vn -1.0000 0.0000 -0.0043
vn -0.0013 0.0000 -1.0000
vn 0.0071 -0.0028 -1.0000
vn 0.0000 0.0043 -1.0000
vn 0.0013 -0.0028 -1.0000
vn -0.0043 0.0000 -1.0000
vn 0.0000 0.4472 0.8944
vn -0.8944 0.4472 0.0000
usemtl None
s off
f 1//1 2//1 3//1
f 2//1 1//1 4//1
f 4//1 1//1 5//1
f 5//1 1//1 6//1
f 6//1 1//1 7//1
f 6//2 7//2 8//2
f 9//3 2//3 10//3
f 2//3 9//3 3//3
f 1//4 11//4 7//4
f 8//4 12//4 6//4
f 12//4 8//4 13//4
f 12//4 13//4 14//4
f 14//4 13//4 11//4
f 14//4 11//4 1//4
f 12//5 9//5 10//5
f 9//5 12//5 14//5
f 9//6 1//6 3//6
f 1//6 9//6 14//6
f 12//2 5//2 6//2
f 5//2 12//2 15//2
f 15//2 12//2 16//2
f 16//2 2//2 4//2
f 2//2 16//2 10//2
f 10//2 16//2 12//2
f 17//5 19//5 18//5
f 18//7 20//7 17//7
f 20//8 21//8 17//8
f 21//9 22//9 17//9
f 22//10 23//10 17//10
f 22//10 24//10 23//10
f 25//4 26//4 18//4
f 18//4 19//4 25//4
f 17//11 23//11 27//11
f 24//12 22//12 28//12
f 28//13 29//13 24//13
f 28//14 30//14 29//14
f 30//14 27//14 29//14
f 30//15 17//15 27//15
f 28//1 26//1 25//1
f 25//1 30//1 28//1
f 25//2 19//2 17//2
f 17//2 30//2 25//2
f 28//16 22//16 21//16
f 21//17 31//17 28//17
f 31//18 32//18 28//18
f 32//19 20//19 18//19
f 18//20 26//20 32//20
f 26//18 28//18 32//18
f 4//21 5//21 21//21 20//21
f 8//22 7//22 23//22 24//22
f 7//2 11//2 27//2 23//2
f 13//6 8//6 24//6 29//6
f 11//1 13//1 29//1 27//1
f 5//3 15//3 31//3 21//3
f 15//1 16//1 32//1 31//1
f 16//4 4//4 20//4 32//4
