# Blender v2.83.4 OBJ File: ''
# www.blender.org
mtllib LongCorridor3x3x12.mtl
v 3.003665 3.000000 0.000000
v 2.001832 0.000000 0.000000
v 3.003665 0.000000 0.000000
v 2.001832 1.998742 0.000000
v 1.000000 1.998742 0.000000
v 0.000000 0.000000 0.000000
v 1.000000 0.000000 0.000000
v 0.000000 3.000000 0.000000
v 0.000000 3.000000 -12.000000
v 0.000000 0.000000 -12.000000
v 3.003665 0.000000 -12.000000
v 3.003665 3.000000 -12.000000
v 1.000916 0.000000 -12.000000
v 2.001832 0.000000 -12.000000
v 1.000916 1.998742 -12.000000
v 2.001832 1.998742 -12.000000
v 2.997891 2.994226 -0.005773
v 2.001832 0.008944 -0.004472
v 2.997891 0.005773 -0.005773
v 2.001832 1.998742 -0.010000
v 1.000000 1.998742 -0.010000
v 0.005773 0.005773 -0.005773
v 1.000000 0.008944 -0.004472
v 0.005773 2.994226 -0.005773
v 0.005773 2.994226 -11.994226
v 0.005773 0.005773 -11.994226
v 2.997891 0.005773 -11.994226
v 2.997891 2.994226 -11.994226
v 1.000916 0.008944 -11.995528
v 2.001832 0.008944 -11.995528
v 1.000916 1.998742 -11.990000
v 2.001832 1.998742 -11.990000
vn 0.0000 0.0000 1.0000
vn -1.0000 0.0000 0.0000
vn 1.0000 0.0000 0.0000
vn 0.0000 1.0000 0.0000
vn 0.0000 -1.0000 0.0000
vn 0.0000 0.0000 -1.0000
vn -0.0013 0.0000 -1.0000
vn 0.0070 -0.0028 -1.0000
vn 0.0000 0.0042 -1.0000
vn 0.0013 -0.0028 -1.0000
vn -0.0043 0.0000 -1.0000
vn -0.0032 1.0000 0.0000
vn 0.0032 1.0000 0.0000
vn 0.0013 0.0000 1.0000
vn -0.0070 -0.0028 1.0000
vn 0.0000 0.0042 1.0000
vn -0.0013 -0.0028 1.0000
vn 0.0042 0.0000 1.0000
vn 0.0000 0.4472 0.8944
vn 0.0000 0.4472 -0.8944
usemtl None
s off
f 1//1 2//1 3//1
f 2//1 1//1 4//1
f 4//1 1//1 5//1
f 5//1 6//1 7//1
f 6//1 5//1 8//1
f 8//1 5//1 1//1
f 9//2 6//2 8//2
f 6//2 9//2 10//2
f 11//3 1//3 3//3
f 1//3 11//3 12//3
f 1//4 9//4 8//4
f 9//4 1//4 12//4
f 13//5 6//5 10//5
f 6//5 13//5 7//5
f 7//5 13//5 2//5
f 2//5 13//5 14//5
f 2//5 14//5 11//5
f 2//5 11//5 3//5
f 9//6 13//6 10//6
f 13//6 9//6 15//6
f 15//6 9//6 16//6
f 16//6 11//6 14//6
f 11//6 16//6 12//6
f 12//6 16//6 9//6
f 17//7 19//7 18//7
f 18//8 20//8 17//8
f 20//9 21//9 17//9
f 21//10 23//10 22//10
f 22//11 24//11 21//11
f 24//9 17//9 21//9
f 25//3 24//3 22//3
f 22//3 26//3 25//3
f 27//2 19//2 17//2
f 17//2 28//2 27//2
f 17//5 24//5 25//5
f 25//5 28//5 17//5
f 29//12 26//12 22//12
f 22//12 23//12 29//12
f 23//4 18//4 29//4
f 18//4 30//4 29//4
f 18//13 27//13 30//13
f 18//13 19//13 27//13
f 25//14 26//14 29//14
f 29//15 31//15 25//15
f 31//16 32//16 25//16
f 32//17 30//17 27//17
f 27//18 28//18 32//18
f 28//16 25//16 32//16
f 2//2 4//2 20//2 18//2
f 4//5 5//5 21//5 20//5
f 5//3 7//3 23//3 21//3
f 7//19 2//19 18//19 23//19
f 14//20 13//20 29//20 30//20
f 13//3 15//3 31//3 29//3
f 15//5 16//5 32//5 31//5
f 16//2 14//2 30//2 32//2
