# Blender v2.83.4 OBJ File: ''
# www.blender.org
mtllib MediumCorridor3x3x9.mtl
v 3.003665 3.000000 0.000000
v 2.001832 0.000000 0.000000
v 3.003665 0.000000 0.000000
v 2.001832 1.998742 0.000000
v 1.000000 1.998742 0.000000
v 0.000000 0.000000 0.000000
v 1.000000 0.000000 0.000000
v 0.000000 3.000000 0.000000
v 0.000000 3.000000 -9.000000
v 1.000916 0.000000 -9.000000
v 0.000000 0.000000 -9.000000
v 1.000916 1.998742 -9.000000
v 2.001832 1.998742 -9.000000
v 3.003665 0.000000 -9.000000
v 2.001832 0.000000 -9.000000
v 3.003665 3.000000 -9.000000
v 2.997891 2.994226 -0.005773
v 2.001832 0.008944 -0.004472
v 2.997891 0.005773 -0.005773
v 2.001832 1.998742 -0.010000
v 1.000000 1.998742 -0.010000
v 0.005773 0.005773 -0.005773
v 1.000000 0.008944 -0.004472
v 0.005773 2.994226 -0.005773
v 0.005773 2.994226 -8.994226
v 1.000916 0.008944 -8.995528
v 0.005773 0.005773 -8.994226
v 1.000916 1.998742 -8.990000
v 2.001832 1.998742 -8.990000
v 2.997891 0.005773 -8.994226
v 2.001832 0.008944 -8.995528
v 2.997891 2.994226 -8.994226
vn 0.0000 0.0000 1.0000
vn 0.0000 0.0000 -1.0000
vn 0.0000 -1.0000 0.0000
vn 1.0000 0.0000 0.0000
vn -1.0000 0.0000 0.0000
vn 0.0000 1.0000 0.0000
vn -0.0013 0.0000 -1.0000
vn 0.0070 -0.0028 -1.0000
vn 0.0000 0.0042 -1.0000
vn 0.0013 -0.0028 -1.0000
vn -0.0043 0.0000 -1.0000
vn 0.0013 0.0000 1.0000
vn -0.0070 -0.0028 1.0000
vn 0.0000 0.0042 1.0000
vn -0.0013 -0.0028 1.0000
vn 0.0042 0.0000 1.0000
vn -0.0032 1.0000 0.0000
vn 0.0032 1.0000 0.0000
vn 0.0000 0.4472 0.8944
vn 0.0000 0.4472 -0.8944
usemtl None
s off
f 1//1 2//1 3//1
f 2//1 1//1 4//1
f 4//1 1//1 5//1
f 5//1 6//1 7//1
f 6//1 5//1 8//1
f 8//1 5//1 1//1
f 9//2 10//2 11//2
f 10//2 9//2 12//2
f 12//2 9//2 13//2
f 13//2 14//2 15//2
f 14//2 13//2 16//2
f 16//2 13//2 9//2
f 10//3 6//3 11//3
f 6//3 10//3 7//3
f 7//3 10//3 2//3
f 2//3 10//3 15//3
f 2//3 15//3 14//3
f 2//3 14//3 3//3
f 14//4 1//4 3//4
f 1//4 14//4 16//4
f 9//5 6//5 8//5
f 6//5 9//5 11//5
f 1//6 9//6 8//6
f 9//6 1//6 16//6
f 17//7 19//7 18//7
f 18//8 20//8 17//8
f 20//9 21//9 17//9
f 21//10 23//10 22//10
f 22//11 24//11 21//11
f 24//9 17//9 21//9
f 25//12 27//12 26//12
f 26//13 28//13 25//13
f 28//14 29//14 25//14
f 29//15 31//15 30//15
f 30//16 32//16 29//16
f 32//14 25//14 29//14
f 26//17 27//17 22//17
f 22//17 23//17 26//17
f 23//6 18//6 26//6
f 18//6 31//6 26//6
f 18//18 30//18 31//18
f 18//18 19//18 30//18
f 30//5 19//5 17//5
f 17//5 32//5 30//5
f 25//4 24//4 22//4
f 22//4 27//4 25//4
f 17//3 24//3 25//3
f 25//3 32//3 17//3
f 2//5 4//5 20//5 18//5
f 4//3 5//3 21//3 20//3
f 5//4 7//4 23//4 21//4
f 10//4 12//4 28//4 26//4
f 12//3 13//3 29//3 28//3
f 13//5 15//5 31//5 29//5
f 7//19 2//19 18//19 23//19
f 15//20 10//20 26//20 31//20
