# Blender v2.83.4 OBJ File: ''
# www.blender.org
mtllib ShortCorridor3x3x16.mtl
v 1.000916 0.000000 -6.000000
v 0.000000 0.000000 0.000000
v 0.000000 0.000000 -6.000000
v 1.000000 0.000000 0.000000
v 2.001832 0.000000 0.000000
v 2.001832 0.000000 -6.000000
v 3.003665 0.000000 -6.000000
v 3.003665 0.000000 0.000000
v 3.003665 3.000000 0.000000
v 2.001832 1.998742 0.000000
v 1.000000 1.998742 0.000000
v 0.000000 3.000000 0.000000
v 0.000000 3.000000 -6.000000
v 1.000916 1.998742 -6.000000
v 2.001832 1.998742 -6.000000
v 3.003665 3.000000 -6.000000
v 1.000916 0.008944 -5.995528
v 0.005773 0.005773 -0.005773
v 0.005773 0.005773 -5.994226
v 1.000000 0.008944 -0.004472
v 2.001832 0.008944 -0.004472
v 2.001832 0.008944 -5.995528
v 2.997891 0.005773 -5.994226
v 2.997891 0.005773 -0.005773
v 2.997891 2.994226 -0.005773
v 2.001832 1.998742 -0.010000
v 1.000000 1.998742 -0.010000
v 0.005773 2.994226 -0.005773
v 0.005773 2.994226 -5.994226
v 1.000916 1.998742 -5.990000
v 2.001832 1.998742 -5.990000
v 2.997891 2.994226 -5.994226
vn 0.0000 -1.0000 0.0000
vn 0.0000 0.0000 1.0000
vn -1.0000 0.0000 0.0000
vn 0.0000 0.0000 -1.0000
vn 1.0000 0.0000 0.0000
vn 0.0000 1.0000 0.0000
vn -0.0032 1.0000 0.0000
vn 0.0032 1.0000 0.0000
vn -0.0013 0.0000 -1.0000
vn 0.0070 -0.0028 -1.0000
vn 0.0000 0.0042 -1.0000
vn 0.0013 -0.0028 -1.0000
vn -0.0043 0.0000 -1.0000
vn 0.0013 0.0000 1.0000
vn -0.0070 -0.0028 1.0000
vn 0.0000 0.0042 1.0000
vn -0.0013 -0.0028 1.0000
vn 0.0042 0.0000 1.0000
vn 0.0000 0.4472 0.8944
vn 0.0000 0.4472 -0.8944
usemtl None
s off
f 1//1 2//1 3//1
f 2//1 1//1 4//1
f 4//1 1//1 5//1
f 5//1 1//1 6//1
f 5//1 6//1 7//1
f 5//1 7//1 8//1
f 9//2 5//2 8//2
f 5//2 9//2 10//2
f 10//2 9//2 11//2
f 11//2 2//2 4//2
f 2//2 11//2 12//2
f 12//2 11//2 9//2
f 13//3 2//3 12//3
f 2//3 13//3 3//3
f 13//4 1//4 3//4
f 1//4 13//4 14//4
f 14//4 13//4 15//4
f 15//4 7//4 6//4
f 7//4 15//4 16//4
f 16//4 15//4 13//4
f 7//5 9//5 8//5
f 9//5 7//5 16//5
f 9//6 13//6 12//6
f 13//6 9//6 16//6
f 17//7 19//7 18//7
f 18//7 20//7 17//7
f 20//6 21//6 17//6
f 21//6 22//6 17//6
f 21//8 23//8 22//8
f 21//8 24//8 23//8
f 25//9 24//9 21//9
f 21//10 26//10 25//10
f 26//11 27//11 25//11
f 27//12 20//12 18//12
f 18//13 28//13 27//13
f 28//11 25//11 27//11
f 29//5 28//5 18//5
f 18//5 19//5 29//5
f 29//14 19//14 17//14
f 17//15 30//15 29//15
f 30//16 31//16 29//16
f 31//17 22//17 23//17
f 23//18 32//18 31//18
f 32//16 29//16 31//16
f 23//3 24//3 25//3
f 25//3 32//3 23//3
f 25//1 28//1 29//1
f 29//1 32//1 25//1
f 4//19 5//19 21//19 20//19
f 6//20 1//20 17//20 22//20
f 5//3 10//3 26//3 21//3
f 10//1 11//1 27//1 26//1
f 11//5 4//5 20//5 27//5
f 1//5 14//5 30//5 17//5
f 14//1 15//1 31//1 30//1
f 15//3 6//3 22//3 31//3
