# Blender v2.83.4 OBJ File: ''
# www.blender.org
mtllib TCornerCorridor6x3x6.mtl
v 3.003665 3.000000 0.000000
v 2.001832 0.000000 0.000000
v 3.003665 0.000000 0.000000
v 2.001832 1.998742 0.000000
v 1.000000 1.998742 0.000000
v 0.000000 0.000000 0.000000
v 1.000000 0.000000 0.000000
v 0.000000 3.000000 0.000000
v 3.003665 0.000000 -3.000000
v 3.003665 3.000000 -3.000000
v 6.003665 0.000000 -4.000000
v 6.003665 3.000000 -3.000000
v 6.003665 0.000000 -3.000000
v 6.003665 2.000000 -4.000000
v 6.003665 3.000000 -6.000000
v 6.003665 2.000000 -5.000000
v 6.003665 0.000000 -5.000000
v 6.003665 0.000000 -6.000000
v 0.000000 3.000000 -3.000000
v 0.000000 0.000000 -3.000000
v -3.000000 3.000000 -3.000000
v -3.000000 2.000000 -4.000000
v -3.000000 0.000000 -3.000000
v -3.000000 3.000000 -6.000000
v -3.000000 2.000000 -5.000000
v -3.000000 0.000000 -5.000000
v -3.000000 0.000000 -6.000000
v -3.000000 0.000000 -4.000000
v 2.997891 2.994226 -0.005773
v 2.001832 0.008944 -0.004472
v 2.997891 0.005773 -0.005773
v 2.001832 1.998742 -0.010000
v 1.000000 1.998742 -0.010000
v 0.005774 0.005773 -0.005774
v 1.000000 0.008944 -0.004472
v 0.005773 2.994226 -0.005773
v 3.000650 0.009045 -3.003015
v 3.000650 2.990955 -3.003015
v 5.999193 -0.008944 -4.000000
v 5.997891 2.994226 -3.005774
v 5.997891 0.005773 -3.005774
v 5.993665 2.000000 -4.000000
v 5.997891 2.994226 -5.994226
v 5.993665 2.000000 -5.000000
v 5.999193 -0.008944 -5.000000
v 5.997891 0.005773 -5.994226
v 0.003015 2.990955 -3.003015
v 0.003015 0.009045 -3.003015
v -2.994226 2.994226 -3.005774
v -2.990000 2.000000 -4.000000
v -2.994226 0.005773 -3.005774
v -2.994226 2.994226 -5.994226
v -2.990000 2.000000 -5.000000
v -2.995528 0.008944 -5.000000
v -2.994226 0.005773 -5.994226
v -2.995528 0.008944 -4.000000
vn 0.0000 0.0000 1.0000
vn 1.0000 0.0000 0.0000
vn -1.0000 0.0000 0.0000
vn 0.0000 0.0000 -1.0000
vn 0.0000 1.0000 0.0000
vn 0.0000 -1.0000 0.0000
vn -0.0013 0.0000 -1.0000
vn 0.0070 -0.0028 -1.0000
vn 0.0000 0.0042 -1.0000
vn 0.0013 -0.0028 -1.0000
vn -0.0043 0.0000 -1.0000
vn -1.0000 0.0000 -0.0009
vn -1.0000 0.0000 -0.0013
vn -1.0000 -0.0028 0.0070
vn -1.0000 0.0043 0.0000
vn -1.0000 -0.0028 -0.0070
vn -1.0000 0.0000 0.0013
vn -0.0009 0.0000 -1.0000
vn 1.0000 0.0000 -0.0009
vn 1.0000 0.0000 0.0043
vn 1.0000 0.0043 0.0000
vn 1.0000 -0.0028 -0.0070
vn 1.0000 0.0000 0.0013
vn 1.0000 -0.0028 -0.0013
vn 0.0009 0.0000 -1.0000
vn 0.0000 -1.0000 0.0011
vn -0.0011 -1.0000 0.0000
vn 0.0000 -1.0000 -0.0011
vn 0.0011 -1.0000 0.0000
vn 0.0000 1.0000 -0.0032
vn 0.0004 1.0000 0.0000
vn 0.0011 1.0000 0.0032
vn -0.0011 1.0000 -0.0033
vn 0.0011 1.0000 0.0011
vn -0.5236 -0.6718 -0.5239
vn -0.0032 1.0000 -0.0021
vn 0.0011 1.0000 -0.0000
vn 0.9961 0.0881 -0.0000
vn 0.0032 1.0000 0.0011
vn 0.0001 0.0000 1.0000
vn -0.8944 0.4472 0.0000
vn 0.0000 0.4472 0.8944
usemtl None
s off
f 1//1 2//1 3//1
f 2//1 1//1 4//1
f 4//1 1//1 5//1
f 5//1 6//1 7//1
f 6//1 5//1 8//1
f 8//1 5//1 1//1
f 9//2 1//2 3//2
f 1//2 9//2 10//2
f 11//2 12//2 13//2
f 12//2 11//2 14//2
f 12//2 14//2 15//2
f 15//2 14//2 16//2
f 15//2 16//2 17//2
f 15//2 17//2 18//2
f 12//1 9//1 13//1
f 9//1 12//1 10//1
f 19//3 6//3 8//3
f 6//3 19//3 20//3
f 21//3 22//3 23//3
f 22//3 21//3 24//3
f 22//3 24//3 25//3
f 25//3 24//3 26//3
f 26//3 24//3 27//3
f 28//3 23//3 22//3
f 19//1 23//1 20//1
f 23//1 19//1 21//1
f 24//4 18//4 27//4
f 18//4 24//4 15//4
f 1//5 19//5 8//5
f 19//5 24//5 21//5
f 24//5 19//5 15//5
f 15//5 19//5 10//5
f 10//5 19//5 1//5
f 15//5 10//5 12//5
f 18//6 26//6 27//6
f 26//6 18//6 28//6
f 28//6 18//6 23//6
f 23//6 18//6 20//6
f 20//6 18//6 6//6
f 6//6 18//6 9//6
f 6//6 9//6 7//6
f 7//6 9//6 2//6
f 9//6 18//6 13//6
f 13//6 18//6 17//6
f 13//1 17//1 11//1
f 3//6 2//6 9//6
f 29//7 31//7 30//7
f 30//8 32//8 29//8
f 32//9 33//9 29//9
f 33//10 35//10 34//10
f 34//11 36//11 33//11
f 36//9 29//9 33//9
f 37//12 31//12 29//12
f 29//12 38//12 37//12
f 39//13 41//13 40//13
f 40//14 42//14 39//14
f 40//15 43//15 42//15
f 43//15 44//15 42//15
f 43//16 45//16 44//16
f 43//17 46//17 45//17
f 40//18 41//18 37//18
f 37//18 38//18 40//18
f 47//19 36//19 34//19
f 34//19 48//19 47//19
f 49//20 51//20 50//20
f 50//21 52//21 49//21
f 50//21 53//21 52//21
f 53//22 54//22 52//22
f 54//23 55//23 52//23
f 56//24 50//24 51//24
f 47//25 48//25 51//25
f 51//25 49//25 47//25
f 52//1 55//1 46//1
f 46//1 43//1 52//1
f 29//26 36//26 47//26
f 47//27 49//27 52//27
f 52//28 43//28 47//28
f 43//28 38//28 47//28
f 38//26 29//26 47//26
f 43//29 40//29 38//29
f 46//30 55//30 54//30
f 54//31 56//31 46//31
f 56//32 51//32 46//32
f 51//33 48//33 46//33
f 48//34 34//34 46//34
f 34//35 37//35 46//35
f 34//36 35//36 37//36
f 35//5 30//5 37//5
f 37//37 41//37 46//37
f 41//38 45//38 46//38
f 41//38 39//38 45//38
f 31//39 37//39 30//39
f 2//3 4//3 32//3 30//3
f 4//6 5//6 33//6 32//6
f 5//2 7//2 35//2 33//2
f 14//4 11//4 39//4 42//4
f 16//6 14//6 42//6 44//6
f 17//40 16//40 44//40 45//40
f 22//6 25//6 53//6 50//6
f 25//40 26//40 54//40 53//40
f 28//4 22//4 50//4 56//4
f 26//41 28//41 56//41 54//41
f 7//42 2//42 30//42 35//42
f 11//41 17//41 45//41 39//41
