# Blender v2.83.4 OBJ File: ''
# www.blender.org
mtllib WideCorridor6x3x6.mtl
v 4.000000 0.000000 -6.000000
v 0.000000 0.000000 0.000000
v 0.000000 0.000000 -6.000000
v 1.000000 0.000000 0.000000
v 2.000000 0.000000 0.000000
v 6.000000 0.000000 0.000000
v 5.000000 0.000000 -6.000000
v 6.000000 0.000000 -6.000000
v 0.000000 3.000000 -6.000000
v 0.000000 3.000000 0.000000
v 6.000000 3.000000 0.000000
v 6.000000 3.000000 -6.000000
v 4.000000 2.000000 -6.000000
v 5.000000 2.000000 -6.000000
v 2.000000 2.000000 0.000000
v 1.000000 2.000000 0.000000
v 4.000000 0.008944 -5.995528
v 0.005773 0.005773 -0.005773
v 0.005773 0.005773 -5.994226
v 1.000000 0.008944 -0.004472
v 2.000000 0.008944 -0.004472
v 5.994226 0.005773 -0.005773
v 5.000000 0.008944 -5.995528
v 5.994226 0.005773 -5.994226
v 0.005773 2.994226 -5.994226
v 0.005773 2.994226 -0.005773
v 5.994226 2.994226 -0.005773
v 5.994226 2.994226 -5.994226
v 4.000000 2.000000 -5.990000
v 5.000000 2.000000 -5.990000
v 2.000000 2.000000 -0.010000
v 1.000000 2.000000 -0.010000
vn 0.0000 -1.0000 0.0000
vn -1.0000 0.0000 0.0000
vn 1.0000 0.0000 0.0000
vn 0.0000 0.0000 -1.0000
vn 0.0000 1.0000 0.0000
vn 0.0000 0.0000 1.0000
vn -0.0008 1.0000 0.0000
vn -0.0032 1.0000 -0.0016
vn 0.0008 1.0000 0.0003
vn 0.0000 1.0000 0.0005
vn 0.0032 1.0000 0.0000
vn 0.0003 0.0000 1.0000
vn -0.0017 -0.0028 1.0000
vn 0.0000 0.0043 1.0000
vn -0.0013 -0.0028 1.0000
vn 0.0043 0.0000 1.0000
vn -0.0003 0.0000 -1.0000
vn 0.0017 -0.0028 -1.0000
vn 0.0000 0.0043 -1.0000
vn 0.0013 -0.0028 -1.0000
vn -0.0043 0.0000 -1.0000
vn 0.0000 0.4472 0.8944
vn 0.0000 0.4472 -0.8944
usemtl None
s off
f 1//1 2//1 3//1
f 2//1 1//1 4//1
f 4//1 1//1 5//1
f 5//1 1//1 6//1
f 6//1 1//1 7//1
f 6//1 7//1 8//1
f 9//2 2//2 10//2
f 2//2 9//2 3//2
f 8//3 11//3 6//3
f 11//3 8//3 12//3
f 9//4 1//4 3//4
f 1//4 9//4 13//4
f 13//4 9//4 14//4
f 14//4 8//4 7//4
f 8//4 14//4 12//4
f 12//4 14//4 9//4
f 11//5 9//5 10//5
f 9//5 11//5 12//5
f 11//6 5//6 6//6
f 5//6 11//6 15//6
f 15//6 11//6 16//6
f 16//6 2//6 4//6
f 2//6 16//6 10//6
f 10//6 16//6 11//6
f 17//7 19//7 18//7
f 18//8 20//8 17//8
f 20//5 21//5 17//5
f 21//9 22//9 17//9
f 22//10 23//10 17//10
f 22//11 24//11 23//11
f 25//3 26//3 18//3
f 18//3 19//3 25//3
f 24//2 22//2 27//2
f 27//2 28//2 24//2
f 25//12 19//12 17//12
f 17//13 29//13 25//13
f 29//14 30//14 25//14
f 30//15 23//15 24//15
f 24//16 28//16 30//16
f 28//14 25//14 30//14
f 27//1 26//1 25//1
f 25//1 28//1 27//1
f 27//17 22//17 21//17
f 21//18 31//18 27//18
f 31//19 32//19 27//19
f 32//20 20//20 18//20
f 18//21 26//21 32//21
f 26//19 27//19 32//19
f 4//22 5//22 21//22 20//22
f 7//23 1//23 17//23 23//23
f 1//3 13//3 29//3 17//3
f 13//1 14//1 30//1 29//1
f 14//2 7//2 23//2 30//2
f 5//2 15//2 31//2 21//2
f 15//1 16//1 32//1 31//1
f 16//3 4//3 20//3 32//3
