# Blender v2.83.4 OBJ File: 'beams.blend'
# www.blender.org
mtllib beams.mtl
o beams_Plane.003
v -0.125000 -1.558948 1.250060
v 0.125000 -1.558948 1.250060
v -0.125000 -1.558948 1.000060
v 0.125000 -1.558948 1.000060
v -0.125000 0.941052 1.000060
v -0.125000 0.941052 1.250060
v 0.125000 0.941052 1.250060
v 0.125000 0.941052 1.000060
v -0.125000 0.691052 1.250060
v -0.125000 0.691052 1.000060
v 0.125000 0.691052 1.000060
v 0.125000 0.691052 1.250060
v 0.125000 0.941052 -1.249940
v -0.125000 0.941052 -1.249940
v -0.125000 0.691052 -1.249940
v 0.125000 0.691052 -1.249940
v 0.125000 0.941052 -0.999853
v -0.125000 0.941052 -0.999853
v -0.125000 0.691052 -0.999853
v 0.125000 0.691052 -0.999853
v -0.125000 -1.558948 -1.249940
v 0.125000 -1.558948 -1.249940
v -0.125000 -1.558948 -0.999853
v 0.125000 -1.558948 -0.999853
v -0.125000 -0.433948 1.125060
v 0.125000 -0.433948 1.125060
v -0.125000 -0.433948 1.250060
v 0.125000 -0.433948 1.250060
v -0.125000 0.941052 0.000104
v 0.125000 0.816052 0.000104
v 0.125000 0.941052 0.000104
v -0.125000 0.816052 0.000104
v 0.125000 -0.433948 -1.124853
v 0.125000 -0.433948 -1.249940
v -0.125000 -0.433948 -1.249940
v -0.125000 -0.433948 -1.124853
vt 0.498419 0.498804
vt 0.548242 0.498804
vt 0.548242 0.548627
vt 0.498419 0.548627
vt 0.698865 0.997030
vt 0.649043 0.997030
vt 0.649043 0.947208
vt 0.698865 0.947208
vt 0.947207 0.050015
vt 0.947207 0.000193
vt 0.997030 0.000193
vt 0.997030 0.050015
vt 0.698865 0.548644
vt 0.649043 0.548644
vt 0.649043 0.498804
vt 0.698865 0.498804
vt 0.050015 0.498804
vt 0.050015 0.548627
vt 0.000193 0.548627
vt 0.000193 0.498804
vt 0.000193 0.448596
vt 0.050015 0.448596
vt 0.050015 0.498419
vt 0.000193 0.498419
vt 0.000193 0.224394
vt 0.025104 0.224394
vt 0.274217 0.498804
vt 0.274217 0.548627
vt 0.749073 0.724386
vt 0.699251 0.724386
vt 0.699251 0.498804
vt 0.749073 0.498804
vt 0.723005 0.025104
vt 0.723005 0.000193
vt 0.598835 0.947208
vt 0.648658 0.947208
vt 0.648658 0.997031
vt 0.598835 0.997031
vt 0.498419 0.224395
vt 0.473490 0.224395
vt 0.448578 0.000193
vt 0.498419 0.000193
vt 0.448579 0.498419
vt 0.448579 0.448596
vt 0.498419 0.448596
vt 0.498419 0.498419
vt 0.947208 0.448579
vt 0.997030 0.448579
vt 0.997030 0.498419
vt 0.947208 0.498419
vt 0.972119 0.249297
vt 0.997030 0.249297
vt 0.249297 0.498419
vt 0.249297 0.473508
vt 0.749459 0.699637
vt 0.799281 0.699637
vt 0.799281 0.900470
vt 0.749459 0.900470
vt 0.698865 0.747926
vt 0.649043 0.747926
vt 0.598450 0.548644
vt 0.548627 0.548644
vt 0.548627 0.498804
vt 0.598450 0.498804
vt 0.648658 0.723006
vt 0.598835 0.723006
vt 0.598835 0.498804
vt 0.648658 0.498804
vt 0.598450 0.774226
vt 0.548627 0.774226
vt 0.723006 0.473490
vt 0.723006 0.498419
vt 0.498804 0.498419
vt 0.498804 0.448579
vt 0.498804 0.050015
vt 0.498804 0.000193
vt 0.749073 0.949967
vt 0.699251 0.949967
vt 0.000193 0.000193
vt 0.050015 0.000193
vt 0.749459 0.498804
vt 0.799281 0.498804
vt 0.598450 0.999807
vt 0.548627 0.999807
vn -0.5773 -0.5773 0.5773
vn -0.5717 -0.5471 -0.6113
vn 0.5717 -0.5471 -0.6113
vn 0.5773 -0.5773 0.5773
vn -0.5773 0.5773 0.5773
vn 0.5773 0.5773 0.5773
vn 0.7071 0.7071 0.0000
vn -0.7071 0.7071 0.0000
vn -0.8759 -0.3388 -0.3435
vn -0.7071 0.0000 0.7071
vn 0.5773 0.5773 -0.5773
vn -0.5773 0.5773 -0.5773
vn 0.7071 0.0000 0.7071
vn 0.8759 -0.3388 -0.3435
vn 0.7328 0.0000 -0.6804
vn -0.7328 0.0000 -0.6804
vn 0.7071 0.0000 -0.7071
vn -0.7071 0.0000 -0.7071
vn 0.7328 0.0000 0.6804
vn 0.5717 -0.5471 0.6113
vn 0.5773 -0.5773 -0.5773
vn 0.8759 -0.3388 0.3435
vn -0.8759 -0.3388 0.3435
vn -0.7361 -0.6768 0.0000
vn 0.7361 -0.6768 0.0000
vn -0.5717 -0.5471 0.6113
vn -0.5773 -0.5773 -0.5773
vn -0.7328 0.0000 0.6804
usemtl None
s 1
f 1/1/1 3/2/2 4/3/3 2/4/4
f 6/5/5 7/6/6 8/7/7 5/8/8
f 10/9/9 9/10/10 6/11/5 5/12/8
f 18/13/8 17/14/7 13/15/11 14/16/12
f 9/17/10 12/18/13 7/19/6 6/20/5
f 12/21/13 11/22/14 8/23/7 7/24/6
f 28/25/13 26/26/15 11/22/14 12/21/13
f 27/27/10 28/28/13 12/18/13 9/17/10
f 26/29/15 25/30/16 10/31/9 11/32/14
f 25/33/16 27/34/10 9/10/10 10/9/9
f 16/35/17 15/36/18 14/37/12 13/38/11
f 34/39/17 33/40/19 24/41/20 22/42/21
f 17/43/7 20/44/22 16/45/17 13/46/11
f 19/47/23 18/48/8 14/49/12 15/50/18
f 32/51/24 29/52/8 18/48/8 19/47/23
f 31/53/7 30/54/25 20/44/22 17/43/7
f 30/55/25 32/56/24 19/57/23 20/58/22
f 29/59/8 31/60/7 17/14/7 18/13/8
f 24/61/20 23/62/26 21/63/27 22/64/21
f 35/65/18 34/66/17 22/67/21 21/68/27
f 33/69/19 36/70/28 23/62/26 24/61/20
f 36/71/28 35/72/18 21/73/27 23/74/26
f 3/75/2 1/76/1 27/34/10 25/33/16
f 4/77/3 3/78/2 25/30/16 26/29/15
f 1/1/1 2/4/4 28/28/13 27/27/10
f 2/79/4 4/80/3 26/26/15 28/25/13
f 5/8/8 8/7/7 31/60/7 29/59/8
f 11/81/14 10/82/9 32/56/24 30/55/25
f 8/23/7 11/22/14 30/54/25 31/53/7
f 10/9/9 5/12/8 29/52/8 32/51/24
f 19/47/23 15/50/18 35/72/18 36/71/28
f 20/83/22 19/84/23 36/70/28 33/69/19
f 15/36/18 16/35/17 34/66/17 35/65/18
f 16/45/17 20/44/22 33/40/19 34/39/17
