# Blender v2.83.4 OBJ File: 'flashlight.blend'
# www.blender.org
mtllib flashlight.mtl
o flashlight_Cylinder.002
v 0.000000 0.000000 -0.020000
v 0.014142 0.000000 -0.014142
v 0.020000 0.000000 0.000000
v 0.014142 0.000000 0.014142
v -0.000000 0.000000 0.020000
v -0.014142 0.000000 0.014142
v -0.020000 0.000000 -0.000000
v -0.014142 0.000000 -0.014142
v 0.000000 0.075000 -0.020000
v 0.014142 0.075000 -0.014142
v 0.020000 0.075000 0.000000
v 0.014142 0.075000 0.014142
v -0.000000 0.075000 0.020000
v -0.014142 0.075000 0.014142
v -0.020000 0.075000 -0.000000
v -0.014142 0.075000 -0.014142
v 0.000000 0.112500 -0.029982
v 0.021213 0.112500 -0.021201
v 0.030000 0.112500 0.000000
v 0.021213 0.112500 0.021201
v -0.000000 0.112500 0.029982
v -0.021213 0.112500 0.021201
v -0.030000 0.112500 -0.000000
v -0.021213 0.112500 -0.021201
v -0.021213 0.149998 -0.021201
v -0.000000 0.149998 -0.029982
v -0.030000 0.149998 -0.000000
v -0.021213 0.149998 0.021201
v -0.000000 0.149998 0.029982
v 0.021213 0.149998 0.021201
v 0.030000 0.149998 0.000000
v 0.021213 0.149998 -0.021201
v 0.000000 -0.150000 -0.014588
v 0.000000 -0.145000 -0.020000
v 0.010315 -0.150000 -0.010315
v 0.014142 -0.145000 -0.014142
v 0.014588 -0.150000 0.000000
v 0.020000 -0.145000 0.000000
v 0.010315 -0.150000 0.010315
v 0.014142 -0.145000 0.014142
v -0.000000 -0.150000 0.014588
v -0.000000 -0.145000 0.020000
v -0.010315 -0.150000 0.010315
v -0.014142 -0.145000 0.014142
v -0.014588 -0.150000 -0.000000
v -0.020000 -0.145000 -0.000000
v -0.010315 -0.150000 -0.010315
v -0.014142 -0.145000 -0.014142
vt 0.398328 0.774745
vt 0.453852 0.770934
vt 0.455860 0.862866
vt 0.399572 0.864096
vt 0.240939 0.083640
vt 0.170558 0.425233
vt 0.132508 0.417009
vt 0.206792 0.066840
vt 0.449506 0.108877
vt 0.414821 0.463528
vt 0.373600 0.458768
vt 0.412361 0.109764
vt 0.273868 0.092998
vt 0.210672 0.433272
vt 0.307513 0.099371
vt 0.251046 0.440725
vt 0.341824 0.104181
vt 0.291684 0.447462
vt 0.376722 0.107757
vt 0.332549 0.453452
vt 0.480180 0.079965
vt 0.447086 0.088140
vt 0.417905 0.070520
vt 0.409731 0.037426
vt 0.427351 0.008245
vt 0.460444 0.000071
vt 0.489625 0.017691
vt 0.497800 0.050784
vt 0.126067 0.628156
vt 0.085918 0.613685
vt 0.169037 0.640202
vt 0.212951 0.651751
vt 0.257883 0.661457
vt 0.303340 0.666992
vt 0.348337 0.670485
vt 0.392652 0.673476
vt 0.456676 0.467904
vt 0.434977 0.673337
vt 0.086558 0.722820
vt 0.034344 0.700208
vt 0.137723 0.740713
vt 0.189347 0.754008
vt 0.240958 0.763749
vt 0.292738 0.770898
vt 0.345183 0.774838
vt 0.496548 0.901781
vt 0.497800 0.958046
vt 0.458884 0.998700
vt 0.402596 0.999930
vt 0.361908 0.961014
vt 0.360656 0.904750
vt 0.342302 0.863577
vt 0.284888 0.859845
vt 0.227729 0.852779
vt 0.170680 0.842554
vt 0.113564 0.828895
vt 0.056688 0.811593
vt 0.000071 0.791189
vt 0.490761 0.101119
vt 0.413044 0.089457
vt 0.378821 0.087710
vt 0.344728 0.084427
vt 0.311111 0.080116
vt 0.278507 0.074621
vt 0.247848 0.066775
vt 0.220882 0.052425
vn 0.7014 -0.1259 -0.7016
vn 0.0000 -0.1258 -0.9920
vn 0.0000 0.6303 -0.7763
vn 0.5488 0.6302 -0.5491
vn -0.6572 -0.3688 -0.6572
vn -0.7071 0.0000 -0.7071
vn 0.0000 0.0000 -1.0000
vn 0.0000 -0.3688 -0.9295
vn 0.6572 -0.3688 -0.6572
vn 0.7071 0.0000 -0.7071
vn 1.0000 0.0000 0.0000
vn 0.9295 -0.3688 0.0000
vn -0.9295 -0.3688 0.0000
vn -1.0000 0.0000 0.0000
vn -0.6572 -0.3688 0.6572
vn -0.7071 0.0000 0.7071
vn 0.0000 -0.3688 0.9295
vn 0.0000 0.0000 1.0000
vn 0.6572 -0.3688 0.6572
vn 0.7071 0.0000 0.7071
vn 0.0000 -0.8991 -0.4377
vn 0.3095 -0.8991 -0.3095
vn 0.4377 -0.8991 0.0000
vn 0.3095 -0.8991 0.3095
vn 0.0000 -0.8991 0.4377
vn -0.3095 -0.8991 0.3095
vn -0.4377 -0.8991 0.0000
vn -0.3095 -0.8991 -0.3095
vn -0.7006 -0.1341 -0.7008
vn 0.0000 -0.1340 -0.9910
vn -0.9909 -0.1342 0.0000
vn -0.7006 -0.1341 0.7008
vn 0.0000 -0.1340 0.9910
vn 0.7006 -0.1341 0.7008
vn 0.9909 -0.1342 0.0000
vn 0.7006 -0.1341 -0.7008
vn -0.7014 -0.1259 -0.7016
vn -0.9920 -0.1260 0.0000
vn -0.7014 -0.1259 0.7016
vn 0.0000 -0.1258 0.9920
vn 0.7014 -0.1259 0.7016
vn 0.9920 -0.1260 0.0000
vn -0.5488 0.6302 -0.5491
vn -0.7764 0.6302 0.0000
vn -0.5488 0.6302 0.5491
vn 0.0000 0.6303 0.7763
vn 0.5488 0.6302 0.5491
vn 0.7764 0.6302 0.0000
usemtl None
s 1
f 18/1/1 17/2/2 26/3/3 32/4/4
f 48/5/5 8/6/6 1/7/7 34/8/8
f 36/9/9 2/10/10 3/11/11 38/12/12
f 46/13/13 7/14/14 8/6/6 48/5/5
f 44/15/15 6/16/16 7/14/14 46/13/13
f 42/17/17 5/18/18 6/16/16 44/15/15
f 40/19/19 4/20/20 5/18/18 42/17/17
f 38/12/12 3/11/11 4/20/20 40/19/19
f 33/21/21 35/22/22 37/23/23 39/24/24 41/25/25 43/26/26 45/27/27 47/28/28
f 8/6/6 16/29/29 9/30/30 1/7/7
f 7/14/14 15/31/31 16/29/29 8/6/6
f 6/16/16 14/32/32 15/31/31 7/14/14
f 5/18/18 13/33/33 14/32/32 6/16/16
f 4/20/20 12/34/34 13/33/33 5/18/18
f 3/11/11 11/35/35 12/34/34 4/20/20
f 2/10/10 10/36/36 11/35/35 3/11/11
f 1/37/7 9/38/30 10/36/36 2/10/10
f 16/29/29 24/39/37 17/40/2 9/30/30
f 15/31/31 23/41/38 24/39/37 16/29/29
f 14/32/32 22/42/39 23/41/38 15/31/31
f 13/33/33 21/43/40 22/42/39 14/32/32
f 12/34/34 20/44/41 21/43/40 13/33/33
f 11/35/35 19/45/42 20/44/41 12/34/34
f 10/36/36 18/1/1 19/45/42 11/35/35
f 9/38/30 17/2/2 18/1/1 10/36/36
f 25/46/43 27/47/44 28/48/45 29/49/46 30/50/47 31/51/48 32/4/4 26/3/3
f 20/44/41 19/45/42 31/52/48 30/53/47
f 22/42/39 21/43/40 29/54/46 28/55/45
f 24/39/37 23/41/38 27/56/44 25/57/43
f 19/45/42 18/1/1 32/4/4 31/52/48
f 21/43/40 20/44/41 30/53/47 29/54/46
f 23/41/38 22/42/39 28/55/45 27/56/44
f 17/40/2 24/39/37 25/57/43 26/58/3
f 34/59/8 36/9/9 35/22/22 33/21/21
f 36/9/9 38/12/12 37/60/23 35/22/22
f 38/12/12 40/19/19 39/61/24 37/60/23
f 40/19/19 42/17/17 41/62/25 39/61/24
f 42/17/17 44/15/15 43/63/26 41/62/25
f 44/15/15 46/13/13 45/64/27 43/63/26
f 46/13/13 48/5/5 47/65/28 45/64/27
f 48/5/5 34/8/8 33/66/21 47/65/28
f 34/59/8 1/37/7 2/10/10 36/9/9
