# Blender v2.83.4 OBJ File: 'inhaler.blend'
# www.blender.org
mtllib inhaler.mtl
o inhaler_Cylinder
v -0.009318 -0.021554 -0.012501
v -0.009318 -0.030393 -0.008840
v -0.009318 -0.034054 -0.000001
v -0.009318 -0.030393 0.008838
v -0.009318 -0.021554 0.012499
v -0.009318 -0.012715 0.008838
v -0.009318 -0.009054 -0.000001
v -0.009318 -0.012715 -0.008840
v 0.003182 0.008446 -0.012501
v 0.012021 0.008446 -0.008840
v 0.015682 0.008446 -0.000001
v 0.012021 0.008446 0.008838
v 0.003182 0.008446 0.012499
v -0.005657 0.008446 0.008838
v -0.009318 0.008446 -0.000001
v -0.005657 0.008446 -0.008840
v 0.012021 -0.011554 -0.008840
v 0.015682 -0.011554 -0.000001
v 0.012021 -0.011554 0.008838
v 0.003182 -0.011554 0.012499
v -0.005657 -0.011554 0.008838
v -0.005657 -0.011554 -0.008840
v 0.003182 -0.011554 -0.012501
v 0.003182 0.018446 -0.009795
v 0.010108 0.018446 -0.006926
v 0.012976 0.018446 -0.000001
v 0.010108 0.018446 0.006924
v 0.003182 0.018446 0.009793
v -0.003743 0.018446 0.006924
v -0.006612 0.018446 -0.000001
v -0.003743 0.018446 -0.006926
v -0.019318 -0.021554 -0.012501
v -0.019318 -0.030393 -0.008840
v -0.019318 -0.034054 -0.000001
v -0.019318 -0.030393 0.008838
v -0.019318 -0.021554 0.012499
v -0.019318 -0.012715 0.008838
v -0.019318 -0.009054 -0.000001
v -0.019318 -0.012715 -0.008840
v -0.005657 0.018446 -0.008840
v 0.003182 0.018446 -0.012501
v -0.009318 0.018446 -0.000001
v -0.005657 0.018446 0.008838
v 0.003182 0.018446 0.012499
v 0.012021 0.018446 0.008838
v 0.015682 0.018446 -0.000001
v 0.012021 0.018446 -0.008840
v -0.003743 0.038446 -0.006926
v 0.003182 0.038446 -0.009795
v -0.006612 0.038446 -0.000001
v -0.003743 0.038446 0.006924
v 0.003182 0.038446 0.009793
v 0.010108 0.038446 0.006924
v 0.012976 0.038446 -0.000001
v 0.010108 0.038446 -0.006926
v 0.006352 -0.025973 -0.008840
v 0.008182 -0.027804 -0.000001
v 0.006352 -0.025973 0.008838
v 0.001932 -0.021554 0.012499
v -0.002487 -0.017135 0.008838
v -0.002487 -0.017135 -0.008840
v 0.001932 -0.021554 -0.012501
v -0.005487 0.030170 -0.008840
v 0.003182 0.028446 -0.012501
v -0.009077 0.030885 -0.000001
v -0.005487 0.030170 0.008838
v 0.003182 0.028446 0.012499
v 0.011851 0.026722 0.008838
v 0.015442 0.026007 -0.000001
v 0.011851 0.026722 -0.008840
v -0.003610 0.029797 -0.006926
v 0.003182 0.028446 -0.009795
v -0.006424 0.030357 -0.000001
v -0.003610 0.029797 0.006924
v 0.003182 0.028446 0.009793
v 0.009975 0.027095 0.006924
v 0.012788 0.026535 -0.000001
v 0.009975 0.027095 -0.006926
vt 0.583456 0.482598
vt 0.572756 0.415538
vt 0.740265 0.405473
vt 0.745362 0.462759
vt 0.856156 0.644564
vt 0.873193 0.561261
vt 0.960266 0.579069
vt 0.943228 0.662372
vt 0.145551 0.085750
vt 0.322815 0.093912
vt 0.317007 0.175178
vt 0.146424 0.170707
vt 0.292239 0.580263
vt 0.288057 0.670214
vt 0.123157 0.654775
vt 0.108925 0.562393
vt 0.172683 0.000146
vt 0.331156 0.009927
vt 0.124188 0.475357
vt 0.297737 0.495218
vt 0.141563 0.396744
vt 0.304039 0.414182
vt 0.152419 0.322468
vt 0.309346 0.334521
vt 0.151750 0.248514
vt 0.313257 0.255063
vt 0.055642 0.168883
vt 0.020910 0.226927
vt 0.000146 0.311251
vt 0.006985 0.398190
vt 0.032026 0.462177
vt 0.060569 0.525066
vt 0.093451 0.113226
vt 0.406785 0.103591
vt 0.399468 0.181110
vt 0.421454 0.021261
vt 0.381948 0.582263
vt 0.385545 0.672399
vt 0.383623 0.499401
vt 0.388232 0.418707
vt 0.392336 0.338620
vt 0.395908 0.259215
vt 0.899229 0.005523
vt 0.904373 0.087481
vt 0.871452 0.085726
vt 0.839182 0.558336
vt 0.833158 0.971146
vt 0.775293 0.913281
vt 0.775293 0.831448
vt 0.833158 0.773584
vt 0.914991 0.773584
vt 0.972855 0.831448
vt 0.972855 0.913281
vt 0.914990 0.971146
vt 0.917029 0.324341
vt 0.917272 0.248222
vt 0.999854 0.245354
vt 0.999854 0.327969
vt 0.984896 0.000146
vt 0.990040 0.082104
vt 0.890293 0.478677
vt 0.977132 0.495816
vt 0.910242 0.169399
vt 0.995184 0.164062
vt 0.907485 0.400249
vt 0.991963 0.411916
vt 0.601707 0.152957
vt 0.586493 0.211651
vt 0.498326 0.188725
vt 0.512487 0.123800
vt 0.574585 0.275913
vt 0.488723 0.263223
vt 0.465341 0.504586
vt 0.477990 0.579711
vt 0.569261 0.345148
vt 0.482071 0.344051
vt 0.505963 0.655915
vt 0.483533 0.425543
vt 0.526218 0.052786
vt 0.494767 0.116547
vt 0.488762 0.502983
vt 0.544972 0.713108
vt 0.590310 0.667770
vt 0.654428 0.667770
vt 0.699766 0.713108
vt 0.699766 0.777226
vt 0.654428 0.822564
vt 0.590310 0.822564
vt 0.544972 0.777226
vt 0.615305 0.603698
vt 0.598582 0.545462
vt 0.753572 0.519409
vt 0.763665 0.575478
vt 0.754923 0.177821
vt 0.747080 0.233508
vt 0.741370 0.290157
vt 0.738935 0.347696
vt 0.617277 0.099631
vt 0.763665 0.122954
vt 0.819706 0.512909
vt 0.794552 0.454192
vt 0.813618 0.180661
vt 0.846171 0.126894
vt 0.780887 0.235061
vt 0.763958 0.314184
vt 0.769525 0.395292
vt 0.872537 0.078114
vt 0.839517 0.566225
vt 0.476833 0.183285
vt 0.538381 0.068546
vt 0.500773 0.574300
vt 0.526278 0.638538
vt 0.458665 0.424969
vt 0.456790 0.341118
vt 0.464622 0.258641
vn -0.0743 -0.8870 0.4558
vn -0.1957 -0.8440 0.4993
vn 0.5490 0.6302 0.5490
vn 0.0000 0.6302 0.7764
vn -0.7064 0.7078 0.0000
vn -0.0477 0.6640 -0.7462
vn -0.6302 0.5490 -0.5490
vn -0.6302 0.7764 0.0000
vn -0.4595 0.1815 -0.8694
vn -0.7071 0.0000 -0.7071
vn 0.0000 0.0000 -1.0000
vn 0.0049 -0.0535 -0.9985
vn -0.7071 0.0000 0.7071
vn -1.0000 0.0000 0.0000
vn -0.4595 0.1815 0.8694
vn 0.0049 -0.0535 0.9985
vn 0.0000 0.0000 1.0000
vn 0.7371 -0.1435 0.6604
vn 0.7071 0.0000 0.7071
vn 0.9811 -0.1934 0.0000
vn 1.0000 0.0000 0.0000
vn 0.7371 -0.1435 -0.6604
vn 0.7071 0.0000 -0.7071
vn 0.1298 -0.1589 -0.9787
vn 0.5223 -0.5742 -0.6304
vn 0.6757 -0.7372 0.0000
vn 0.5223 -0.5742 0.6304
vn 0.1298 -0.1589 0.9787
vn -0.1862 0.2273 0.9558
vn -0.1862 0.2273 -0.9558
vn -0.7090 0.0051 -0.7052
vn 0.0001 0.0018 -1.0000
vn -0.9999 0.0085 0.0000
vn -0.7090 0.0051 0.7052
vn 0.0001 0.0018 1.0000
vn 0.7097 0.0075 0.7044
vn 0.9999 0.0129 0.0000
vn 0.7097 0.0075 -0.7044
vn -0.0477 0.6640 0.7462
vn -0.6302 0.0000 -0.7764
vn -0.6302 -0.5490 -0.5490
vn -0.6302 -0.7764 0.0000
vn -0.6302 -0.5490 0.5490
vn -0.6302 0.0000 0.7764
vn -0.6302 0.5490 0.5490
vn 0.1505 -0.9886 0.0000
vn 0.1042 -0.7412 0.6631
vn 0.0560 0.0136 -0.9983
vn 0.0560 0.0136 0.9983
vn 0.1042 -0.7412 -0.6631
vn 0.2184 -0.8337 -0.5072
vn -0.0743 -0.8870 -0.4557
vn 0.1848 0.7847 0.5917
vn 0.5507 0.7464 0.3736
vn -0.1957 -0.8440 -0.4993
vn -0.2820 0.8320 0.4778
vn 0.0860 0.6228 0.7776
vn -0.4670 0.6840 0.5604
vn 0.2125 -0.9771 0.0000
vn -0.5177 0.8555 0.0000
vn -0.7015 0.7127 0.0000
vn -0.2820 0.8320 -0.4778
vn -0.4670 0.6840 -0.5604
vn 0.1848 0.7847 -0.5917
vn -0.5490 0.6302 -0.5490
vn -0.7764 0.6302 0.0000
vn -0.5490 0.6302 0.5490
vn 0.7764 0.6302 0.0000
vn 0.5490 0.6302 -0.5490
vn 0.0000 0.6302 -0.7764
vn -0.1943 -0.9809 0.0000
vn 0.2184 -0.8337 0.5072
vn 0.0860 0.6228 -0.7776
vn 0.6808 0.7324 0.0000
vn 0.5507 0.7464 -0.3736
vn 0.6165 0.5755 0.5373
vn 0.8278 0.5610 0.0000
vn 0.6165 0.5755 -0.5373
usemtl None
s 1
f 28/1/1 27/2/2 53/3/3 52/4/4
f 7/5/5 8/6/6 39/7/7 38/8/8
f 22/9/9 16/10/10 9/11/11 23/12/12
f 14/13/13 15/14/14 7/15/5 21/16/15
f 16/10/10 22/9/9 7/17/5 15/18/14
f 20/19/16 13/20/17 14/13/13 21/16/15
f 19/21/18 12/22/19 13/20/17 20/19/16
f 18/23/20 11/24/21 12/22/19 19/21/18
f 17/25/22 10/26/23 11/24/21 18/23/20
f 23/12/12 9/11/11 10/26/23 17/25/22
f 62/27/24 23/12/12 17/25/22 56/28/25
f 56/28/25 17/25/22 18/23/20 57/29/26
f 57/29/26 18/23/20 19/21/18 58/30/27
f 58/30/27 19/21/18 20/19/16 59/31/28
f 59/31/28 20/19/16 21/16/15 60/32/29
f 61/33/30 22/9/9 23/12/12 62/27/24
f 16/10/10 40/34/31 41/35/32 9/11/11
f 15/18/14 42/36/33 40/34/31 16/10/10
f 14/13/13 43/37/34 42/38/33 15/14/14
f 13/20/17 44/39/35 43/37/34 14/13/13
f 12/22/19 45/40/36 44/39/35 13/20/17
f 11/24/21 46/41/37 45/40/36 12/22/19
f 10/26/23 47/42/38 46/41/37 11/24/21
f 9/11/11 41/35/32 47/42/38 10/26/23
f 7/43/5 6/44/39 21/45/15
f 8/6/6 7/5/5 22/46/9
f 32/47/40 33/48/41 34/49/42 35/50/43 36/51/44 37/52/45 38/53/8 39/54/7
f 3/55/46 4/56/47 35/57/43 34/58/42
f 6/44/39 7/43/5 38/59/8 37/60/45
f 8/6/6 1/61/48 32/62/40 39/7/7
f 4/56/47 5/63/49 36/64/44 35/57/43
f 2/65/50 3/55/46 34/58/42 33/66/41
f 5/63/49 6/44/39 37/60/45 36/64/44
f 1/61/48 2/65/50 33/66/41 32/62/40
f 31/67/51 24/68/52 72/69/53 71/70/54
f 24/68/52 25/71/55 78/72/56 72/69/53
f 43/37/34 44/39/35 67/73/57 66/74/58
f 25/71/55 26/75/59 77/76/60 78/72/56
f 42/38/33 43/37/34 66/74/58 65/77/61
f 26/75/59 27/2/2 76/78/62 77/76/60
f 40/34/31 42/36/33 65/79/61 63/80/63
f 27/2/2 28/1/1 75/81/64 76/78/62
f 48/82/65 50/83/66 51/84/67 52/85/4 53/86/3 54/87/68 55/88/69 49/89/70
f 30/90/71 29/91/72 51/92/67 50/93/66
f 24/68/52 31/67/51 48/94/65 49/95/70
f 25/71/55 24/68/52 49/95/70 55/96/69
f 27/2/2 26/75/59 54/97/68 53/3/3
f 29/91/72 28/1/1 52/4/4 51/92/67
f 31/67/51 30/98/71 50/99/66 48/94/65
f 26/75/59 25/71/55 55/96/69 54/97/68
f 8/6/6 61/100/30 62/101/24 1/61/48
f 5/63/49 59/102/28 60/103/29 6/44/39
f 4/56/47 58/104/27 59/102/28 5/63/49
f 3/55/46 57/105/26 58/104/27 4/56/47
f 2/65/50 56/106/25 57/105/26 3/55/46
f 1/61/48 62/101/24 56/106/25 2/65/50
f 60/103/29 21/107/15 6/44/39
f 61/100/30 8/6/6 22/108/9
f 71/70/54 72/69/53 64/109/73 63/80/63
f 73/110/74 71/70/54 63/80/63 65/79/61
f 74/111/75 73/112/74 65/77/61 66/74/58
f 75/81/64 74/111/75 66/74/58 67/73/57
f 76/78/62 75/81/64 67/73/57 68/113/76
f 77/76/60 76/78/62 68/113/76 69/114/77
f 78/72/56 77/76/60 69/114/77 70/115/78
f 72/69/53 78/72/56 70/115/78 64/109/73
f 44/39/35 45/40/36 68/113/76 67/73/57
f 30/98/71 31/67/51 71/70/54 73/110/74
f 45/40/36 46/41/37 69/114/77 68/113/76
f 29/91/72 30/90/71 73/112/74 74/111/75
f 46/41/37 47/42/38 70/115/78 69/114/77
f 28/1/1 29/91/72 74/111/75 75/81/64
f 47/42/38 41/35/32 64/109/73 70/115/78
f 41/35/32 40/34/31 63/80/63 64/109/73
