# Blender v2.83.4 OBJ File: 'rail.blend'
# www.blender.org
mtllib rail.mtl
o rail_Plane.002
v -0.500000 0.000000 0.439289
v 0.500000 0.000000 0.439289
v 0.500000 0.000000 0.391789
v -0.500000 0.000000 0.391789
v 0.500000 0.000000 -0.465586
v -0.500000 0.000000 -0.465586
v -0.500000 0.000000 -0.422717
v 0.500000 0.000000 -0.422717
v -0.500000 0.025000 0.391789
v -0.500000 0.025000 0.439289
v 0.500000 0.025000 0.439289
v 0.500000 0.025000 0.391789
v 0.500000 0.025000 -0.422717
v 0.500000 0.025000 -0.465586
v -0.500000 0.025000 -0.465586
v -0.500000 0.025000 -0.422717
vt 0.022898 0.043444
vt 0.066271 0.043444
vt 0.066272 0.956558
vt 0.022899 0.956558
vt 0.155442 0.039216
vt 0.194586 0.039216
vt 0.194586 0.952333
vt 0.155443 0.952333
vt 0.132472 0.043444
vt 0.132472 0.956557
vt 0.089099 0.956557
vt 0.089099 0.043444
vt 0.000071 0.956558
vt 0.000071 0.043444
vt 0.066272 0.999929
vt 0.089099 0.999929
vt 0.066271 0.000071
vt 0.089099 0.000071
vt 0.256558 0.039216
vt 0.256558 0.952333
vt 0.217413 0.952333
vt 0.217414 0.039216
vt 0.132615 0.952333
vt 0.132615 0.039216
vt 0.194586 0.000072
vt 0.217414 0.000071
vt 0.194586 0.991476
vt 0.217413 0.991476
vn -0.5773 -0.5773 0.5773
vn -0.5773 -0.5773 -0.5773
vn 0.5773 -0.5773 -0.5773
vn 0.5773 -0.5773 0.5773
vn -0.5773 0.5773 0.5773
vn 0.5773 0.5773 0.5773
vn 0.5773 0.5773 -0.5773
vn -0.5773 0.5773 -0.5773
usemtl None
s 1
f 1/1/1 4/2/2 3/3/3 2/4/4
f 7/5/1 6/6/2 5/7/3 8/8/4
f 10/9/5 11/10/6 12/11/7 9/12/8
f 3/3/3 4/2/2 9/12/8 12/11/7
f 1/1/1 2/4/4 11/13/6 10/14/5
f 2/15/4 3/3/3 12/11/7 11/16/6
f 4/2/2 1/17/1 10/18/5 9/12/8
f 16/19/5 13/20/6 14/21/7 15/22/8
f 7/5/1 8/8/4 13/23/6 16/24/5
f 5/7/3 6/6/2 15/22/8 14/21/7
f 6/6/2 7/25/1 16/26/5 15/22/8
f 8/27/4 5/7/3 14/21/7 13/28/6
