# Blender v2.83.4 OBJ File: 'l_corridor_left.blend'
# www.blender.org
mtllib l_corridor_left.mtl
o Lcorridorleft
v 3.000000 0.000000 -3.000000
v 0.000000 0.000000 0.000000
v 0.000000 0.000000 -3.000000
v 3.000000 0.000000 0.000000
v 3.000000 3.000000 0.000000
v 0.000000 3.000000 -3.000000
v 0.000000 3.000000 0.000000
v 3.000000 3.000000 -3.000000
vt 0.333361 0.333361
vt 0.333361 0.000082
vt 0.666640 0.000082
vt 0.666640 0.333361
vt 0.666640 0.666639
vt 0.666640 0.999918
vt 0.333361 0.999918
vt 0.333361 0.666640
vt 0.000082 0.999918
vt 0.000082 0.666639
vn 0.0000 1.0000 0.0000
vn 0.0000 -1.0000 0.0000
vn 0.0000 0.0000 1.0000
vn -1.0000 0.0000 0.0000
usemtl None
s off
f 1/1/1 3/2/1 2/3/1
f 2/3/1 4/4/1 1/1/1
f 5/5/2 7/6/2 6/7/2
f 6/7/2 8/8/2 5/5/2
f 6/7/3 3/9/3 1/10/3
f 1/10/3 8/8/3 6/7/3
f 1/1/4 4/4/4 5/5/4
f 5/5/4 8/8/4 1/1/4
