# Blender v2.83.4 OBJ File: 't_corridor.blend'
# www.blender.org
mtllib t_corridor.mtl
o Tcorridor
v 3.000000 0.000000 -3.000000
v 0.000000 0.000000 0.000000
v 0.000000 0.000000 -3.000000
v 3.000000 0.000000 0.000000
v 3.000000 3.000000 0.000000
v 0.000000 3.000000 -3.000000
v 0.000000 3.000000 0.000000
v 3.000000 3.000000 -3.000000
vt 0.000058 0.666648
vt 0.333353 0.666648
vt 0.333353 0.999942
vt 0.000058 0.999942
vt 0.000058 0.000058
vt 0.333353 0.000058
vt 0.333353 0.333353
vt 0.000058 0.333353
vn 0.0000 1.0000 0.0000
vn 0.0000 -1.0000 0.0000
vn 0.0000 0.0000 1.0000
usemtl None
s off
f 1/1/1 3/2/1 2/3/1
f 2/3/1 4/4/1 1/1/1
f 5/5/2 7/6/2 6/7/2
f 6/7/2 8/8/2 5/5/2
f 6/7/3 3/2/3 1/1/3
f 1/1/3 8/8/3 6/7/3
