# Blender v2.83.4 OBJ File: 'flashlight.blend'
# www.blender.org
mtllib flashlight.mtl
o Flashlight_Flashlight1
v 0.021651 0.012500 -0.076453
v 0.012500 0.021651 -0.076453
v 0.012500 0.021651 0.055150
v 0.021651 0.012500 0.055150
v 0.000000 0.025000 -0.076453
v 0.000000 0.025000 0.055150
v -0.012500 0.021651 -0.076453
v -0.012500 0.021651 0.055150
v -0.021651 0.012500 -0.076453
v -0.021651 0.012500 0.055150
v -0.025000 0.000000 -0.076453
v -0.025000 -0.000000 0.055150
v -0.021651 -0.012500 -0.076453
v -0.021651 -0.012500 0.055150
v -0.012500 -0.021651 -0.076453
v -0.012500 -0.021651 0.055150
v 0.000000 -0.025000 -0.076453
v 0.000000 -0.025000 0.055150
v 0.012500 -0.021651 -0.076453
v 0.012500 -0.021651 0.055150
v 0.021651 -0.012500 -0.076453
v 0.021651 -0.012500 0.055150
v 0.025000 0.000000 -0.076453
v 0.025000 -0.000000 0.055150
v 0.012500 0.021651 -0.094444
v 0.021651 0.012500 -0.094444
v 0.000000 0.000000 -0.094444
v 0.000000 0.025000 -0.094444
v -0.012500 0.021651 -0.094444
v -0.021651 0.012500 -0.094444
v -0.025000 0.000000 -0.094444
v -0.021651 -0.012500 -0.094444
v -0.012500 -0.021651 -0.094444
v 0.000000 -0.025000 -0.094444
v 0.012500 -0.021651 -0.094444
v 0.021651 -0.012500 -0.094444
v 0.025000 0.000000 -0.094444
v 0.027223 0.015717 0.096982
v 0.015717 0.027223 0.096982
v 0.000000 -0.000000 0.065336
v 0.000000 0.031434 0.096982
v -0.015717 0.027223 0.096982
v -0.027223 0.015717 0.096982
v -0.031434 -0.000000 0.096982
v -0.027223 -0.015717 0.096982
v -0.015717 -0.027223 0.096982
v 0.000000 -0.031434 0.096982
v 0.015717 -0.027223 0.096982
v 0.027223 -0.015717 0.096982
v 0.031434 -0.000000 0.096982
v 0.022325 0.012889 -0.093040
v 0.012889 0.022325 -0.093040
v 0.012889 0.022325 -0.077856
v 0.022325 0.012889 -0.077856
v 0.000000 0.025779 -0.093040
v 0.000000 0.025779 -0.077856
v -0.012889 0.022325 -0.093040
v -0.012889 0.022325 -0.077856
v -0.022325 0.012889 -0.093040
v -0.022325 0.012889 -0.077856
v -0.025779 0.000000 -0.093040
v -0.025779 0.000000 -0.077856
v -0.022325 -0.012889 -0.093040
v -0.022325 -0.012889 -0.077856
v -0.012889 -0.022325 -0.093040
v -0.012889 -0.022325 -0.077856
v 0.000000 -0.025779 -0.093040
v 0.000000 -0.025779 -0.077856
v 0.012889 -0.022325 -0.093040
v 0.012889 -0.022325 -0.077856
v 0.022325 -0.012889 -0.093040
v 0.022325 -0.012889 -0.077856
v 0.025779 0.000000 -0.093040
v 0.025779 0.000000 -0.077856
v 0.026608 0.015362 0.076755
v 0.030725 -0.000000 0.076755
v 0.026608 -0.015362 0.076755
v 0.015362 -0.026608 0.076755
v 0.000000 -0.030725 0.076755
v -0.015362 -0.026608 0.076755
v -0.026608 -0.015362 0.076755
v -0.030725 -0.000000 0.076755
v -0.026608 0.015362 0.076755
v -0.015362 0.026608 0.076755
v 0.000000 0.030725 0.076755
v 0.015362 0.026608 0.076755
vt 0.690121 0.417783
vt 0.690381 0.471961
vt 0.638142 0.473755
vt 0.637930 0.419380
vt 0.690950 0.527446
vt 0.638739 0.529075
vt 0.691543 0.582552
vt 0.639597 0.584957
vt 0.692754 0.637108
vt 0.640617 0.639939
vt 0.697367 0.695153
vt 0.639687 0.696128
vt 0.697610 0.032685
vt 0.692859 0.088556
vt 0.640777 0.088449
vt 0.640066 0.030329
vt 0.691511 0.142800
vt 0.639591 0.143362
vt 0.690922 0.198118
vt 0.638841 0.198539
vt 0.690366 0.253078
vt 0.638293 0.254141
vt 0.690113 0.307151
vt 0.637910 0.308394
vt 0.690142 0.362636
vt 0.637855 0.363633
vt 0.695877 0.417784
vt 0.696317 0.471920
vt 0.632598 0.473770
vt 0.632085 0.419395
vt 0.697101 0.527385
vt 0.632555 0.529137
vt 0.697310 0.582464
vt 0.633717 0.585053
vt 0.698796 0.636783
vt 0.634911 0.639914
vt 0.703668 0.693707
vt 0.633550 0.695090
vt 0.703668 0.034118
vt 0.698619 0.088892
vt 0.634712 0.088423
vt 0.633673 0.031299
vt 0.697434 0.142906
vt 0.634041 0.143274
vt 0.697055 0.198185
vt 0.632681 0.198466
vt 0.696107 0.253132
vt 0.632460 0.254099
vt 0.696043 0.307165
vt 0.632375 0.308349
vt 0.696297 0.362640
vt 0.631682 0.363618
vt 0.141553 0.473761
vt 0.141013 0.416153
vt 0.143112 0.531353
vt 0.145977 0.588652
vt 0.150477 0.645112
vt 0.156763 0.700660
vt 0.154230 0.078815
vt 0.160079 0.026992
vt 0.149852 0.132932
vt 0.146512 0.188367
vt 0.144051 0.244647
vt 0.142304 0.301465
vt 0.141273 0.358673
vt 0.778774 0.296332
vt 0.833577 0.296332
vt 0.806175 0.398596
vt 0.731313 0.323733
vt 0.703911 0.371194
vt 0.703911 0.425997
vt 0.731313 0.473458
vt 0.778774 0.500860
vt 0.833577 0.500860
vt 0.881038 0.473458
vt 0.908439 0.425997
vt 0.908439 0.371194
vt 0.881038 0.323733
vt 0.743563 0.256437
vt 0.703911 0.187757
vt 0.851895 0.148105
vt 0.703911 0.108453
vt 0.743563 0.039774
vt 0.812243 0.000121
vt 0.891547 0.000121
vt 0.960226 0.039774
vt 0.999878 0.108453
vt 0.999878 0.187757
vt 0.960226 0.256437
vt 0.891547 0.296089
vt 0.812243 0.296089
vt 0.062964 0.415305
vt 0.063694 0.356648
vt 0.065222 0.298329
vt 0.067589 0.240302
vt 0.070978 0.182558
vt 0.075775 0.125128
vt 0.082637 0.068019
vt 0.092425 0.010680
vt 0.080807 0.717307
vt 0.072412 0.654547
vt 0.067361 0.593893
vt 0.064462 0.533885
vt 0.063134 0.474366
vt 0.000581 0.415119
vt 0.001796 0.355603
vt 0.003660 0.296459
vt 0.006242 0.237472
vt 0.009772 0.178459
vt 0.014659 0.119282
vt 0.021468 0.059854
vt 0.030708 0.000121
vt 0.014643 0.725372
vt 0.007560 0.661479
vt 0.002970 0.598336
vt 0.000732 0.536263
vt 0.000121 0.475256
vn 0.7071 0.7071 0.0000
vn 0.2588 0.9659 0.0000
vn -0.2588 0.9659 0.0000
vn -0.7071 0.7071 0.0000
vn -0.9659 0.2588 0.0000
vn -0.9659 -0.2588 -0.0000
vn -0.7071 -0.7071 -0.0000
vn -0.2588 -0.9659 -0.0000
vn 0.2588 -0.9659 -0.0000
vn 0.7071 -0.7071 -0.0000
vn 0.9659 -0.2588 -0.0000
vn 0.9659 0.2588 0.0000
vn 0.6233 0.6233 -0.4723
vn 0.6233 0.6233 0.4723
vn 0.2281 0.8514 -0.4723
vn 0.2281 0.8514 0.4723
vn -0.2281 0.8514 -0.4723
vn -0.2281 0.8514 0.4723
vn -0.6233 0.6233 -0.4723
vn -0.6233 0.6233 0.4723
vn -0.8514 0.2281 -0.4723
vn -0.8514 0.2281 0.4723
vn -0.8514 -0.2281 -0.4723
vn -0.8514 -0.2281 0.4723
vn -0.6233 -0.6233 -0.4723
vn -0.6233 -0.6233 0.4723
vn -0.2281 -0.8514 -0.4723
vn -0.2281 -0.8514 0.4723
vn 0.2281 -0.8514 -0.4723
vn 0.2281 -0.8514 0.4723
vn 0.6233 -0.6233 -0.4723
vn 0.6233 -0.6233 0.4723
vn 0.8514 -0.2281 -0.4723
vn 0.8514 -0.2281 0.4723
vn 0.8514 0.2281 -0.4723
vn 0.8514 0.2281 0.4723
vn 0.7078 0.7060 -0.0257
vn 0.7060 0.7078 -0.0257
vn 0.2599 0.9653 -0.0257
vn 0.2575 0.9659 -0.0257
vn -0.2575 0.9659 -0.0257
vn -0.2599 0.9653 -0.0257
vn -0.7060 0.7078 -0.0257
vn -0.7078 0.7060 -0.0257
vn -0.9653 0.2599 -0.0257
vn -0.9659 0.2575 -0.0257
vn -0.9659 -0.2575 -0.0257
vn -0.9653 -0.2599 -0.0257
vn -0.7078 -0.7060 -0.0257
vn -0.7060 -0.7078 -0.0257
vn -0.2599 -0.9653 -0.0257
vn -0.2575 -0.9659 -0.0257
vn 0.2575 -0.9659 -0.0257
vn 0.2599 -0.9653 -0.0257
vn 0.7060 -0.7078 -0.0257
vn 0.7078 -0.7060 -0.0257
vn 0.9653 -0.2599 -0.0257
vn 0.9659 -0.2575 -0.0257
vn 0.9659 0.2575 -0.0257
vn 0.9653 0.2599 -0.0257
vn -0.0000 0.0000 -1.0000
vn -0.6144 -0.3547 0.7047
vn -0.3547 -0.6144 0.7047
vn 0.0000 -0.0000 1.0000
vn 0.0000 -0.7095 0.7047
vn 0.3547 -0.6144 0.7047
vn 0.6144 -0.3547 0.7047
vn 0.7095 0.0000 0.7047
vn 0.6144 0.3547 0.7047
vn 0.3547 0.6144 0.7047
vn 0.0000 0.7095 0.7047
vn -0.3547 0.6144 0.7047
vn -0.6144 0.3547 0.7047
vn -0.7095 0.0000 0.7047
vn 0.9571 0.2565 -0.1348
vn 0.9571 -0.2564 -0.1348
vn 0.7007 -0.7006 -0.1348
vn 0.2565 -0.9571 -0.1347
vn 0.2565 -0.9571 -0.1348
vn -0.2564 -0.9571 -0.1348
vn -0.2565 -0.9571 -0.1347
vn -0.7006 -0.7007 -0.1348
vn -0.9571 -0.2565 -0.1348
vn -0.9571 0.2564 -0.1348
vn -0.7007 0.7006 -0.1348
vn -0.2565 0.9571 -0.1347
vn -0.2565 0.9571 -0.1348
vn 0.2564 0.9571 -0.1348
vn 0.2565 0.9571 -0.1347
vn 0.7006 0.7007 -0.1348
vn 0.9654 0.2587 -0.0339
vn 0.9654 -0.2587 -0.0339
vn 0.7067 -0.7067 -0.0339
vn 0.2587 -0.9654 -0.0339
vn -0.2587 -0.9654 -0.0339
vn -0.7067 -0.7067 -0.0339
vn -0.9654 -0.2587 -0.0339
vn -0.9654 0.2587 -0.0339
vn -0.7067 0.7067 -0.0339
vn -0.2587 0.9654 -0.0339
vn 0.2587 0.9654 -0.0339
vn 0.7067 0.7067 -0.0339
usemtl initialShadingGroup
s off
f 51/1/1 52/2/1 53/3/1 54/4/1
f 52/2/2 55/5/2 56/6/2 53/3/2
f 55/5/3 57/7/3 58/8/3 56/6/3
f 57/7/4 59/9/4 60/10/4 58/8/4
f 59/9/5 61/11/5 62/12/5 60/10/5
f 61/13/6 63/14/6 64/15/6 62/16/6
f 63/14/7 65/17/7 66/18/7 64/15/7
f 65/17/8 67/19/8 68/20/8 66/18/8
f 67/19/9 69/21/9 70/22/9 68/20/9
f 69/21/10 71/23/10 72/24/10 70/22/10
f 71/23/11 73/25/11 74/26/11 72/24/11
f 73/25/12 51/1/12 54/4/12 74/26/12
f 26/27/13 25/28/13 52/2/13 51/1/13
f 2/29/14 1/30/14 54/4/14 53/3/14
f 25/28/15 28/31/15 55/5/15 52/2/15
f 5/32/16 2/29/16 53/3/16 56/6/16
f 28/31/17 29/33/17 57/7/17 55/5/17
f 7/34/18 5/32/18 56/6/18 58/8/18
f 29/33/19 30/35/19 59/9/19 57/7/19
f 9/36/20 7/34/20 58/8/20 60/10/20
f 30/35/21 31/37/21 61/11/21 59/9/21
f 11/38/22 9/36/22 60/10/22 62/12/22
f 31/39/23 32/40/23 63/14/23 61/13/23
f 13/41/24 11/42/24 62/16/24 64/15/24
f 32/40/25 33/43/25 65/17/25 63/14/25
f 15/44/26 13/41/26 64/15/26 66/18/26
f 33/43/27 34/45/27 67/19/27 65/17/27
f 17/46/28 15/44/28 66/18/28 68/20/28
f 34/45/29 35/47/29 69/21/29 67/19/29
f 19/48/30 17/46/30 68/20/30 70/22/30
f 35/47/31 36/49/31 71/23/31 69/21/31
f 21/50/32 19/48/32 70/22/32 72/24/32
f 36/49/33 37/51/33 73/25/33 71/23/33
f 23/52/34 21/50/34 72/24/34 74/26/34
f 37/51/35 26/27/35 51/1/35 73/25/35
f 1/30/36 23/52/36 74/26/36 54/4/36
s 1
f 1/30/1 2/29/1 3/53/37 4/54/38
f 2/29/2 5/32/2 6/55/39 3/53/40
f 5/32/3 7/34/3 8/56/41 6/55/42
f 7/34/4 9/36/4 10/57/43 8/56/44
f 9/36/5 11/38/5 12/58/45 10/57/46
f 11/42/6 13/41/6 14/59/47 12/60/48
f 13/41/7 15/44/7 16/61/49 14/59/50
f 15/44/8 17/46/8 18/62/51 16/61/52
f 17/46/9 19/48/9 20/63/53 18/62/54
f 19/48/10 21/50/10 22/64/55 20/63/56
f 21/50/11 23/52/11 24/65/57 22/64/58
f 23/52/12 1/30/12 4/54/59 24/65/60
f 25/66/61 26/67/61 27/68/61
f 28/69/61 25/66/61 27/68/61
f 29/70/61 28/69/61 27/68/61
f 30/71/61 29/70/61 27/68/61
f 31/72/61 30/71/61 27/68/61
f 32/73/61 31/72/61 27/68/61
f 33/74/61 32/73/61 27/68/61
f 34/75/61 33/74/61 27/68/61
f 35/76/61 34/75/61 27/68/61
f 36/77/61 35/76/61 27/68/61
f 37/78/61 36/77/61 27/68/61
f 26/67/61 37/78/61 27/68/61
f 38/79/62 39/80/63 40/81/64
f 39/80/63 41/82/65 40/81/64
f 41/82/65 42/83/66 40/81/64
f 42/83/66 43/84/67 40/81/64
f 43/84/67 44/85/68 40/81/64
f 44/85/68 45/86/69 40/81/64
f 45/86/69 46/87/70 40/81/64
f 46/87/70 47/88/71 40/81/64
f 47/88/71 48/89/72 40/81/64
f 48/89/72 49/90/73 40/81/64
f 49/90/73 50/91/74 40/81/64
f 50/91/74 38/79/62 40/81/64
f 24/65/60 4/54/59 75/92/75 76/93/75
f 22/64/58 24/65/57 76/93/76 77/94/76
f 20/63/56 22/64/55 77/94/77 78/95/77
f 18/62/54 20/63/53 78/95/78 79/96/79
f 16/61/52 18/62/51 79/96/80 80/97/81
f 14/59/50 16/61/49 80/97/82 81/98/82
f 12/60/48 14/59/47 81/98/83 82/99/83
f 10/57/46 12/58/45 82/100/84 83/101/84
f 8/56/44 10/57/43 83/101/85 84/102/85
f 6/55/42 8/56/41 84/102/86 85/103/87
f 3/53/40 6/55/39 85/103/88 86/104/89
f 4/54/38 3/53/37 86/104/90 75/92/90
f 76/93/75 75/92/75 38/105/91 50/106/91
f 77/94/76 76/93/76 50/106/92 49/107/92
f 78/95/77 77/94/77 49/107/93 48/108/93
f 79/96/79 78/95/78 48/108/94 47/109/94
f 80/97/81 79/96/80 47/109/95 46/110/95
f 81/98/82 80/97/82 46/110/96 45/111/96
f 82/99/83 81/98/83 45/111/97 44/112/97
f 83/101/84 82/100/84 44/113/98 43/114/98
f 84/102/85 83/101/85 43/114/99 42/115/99
f 85/103/87 84/102/86 42/115/100 41/116/100
f 86/104/89 85/103/88 41/116/101 39/117/101
f 75/92/90 86/104/90 39/117/102 38/105/102
